<?xml version="1.0" encoding="UTF-8"?>
<svg xmlns="http://www.w3.org/2000/svg" viewBox="0 0 144 144" width="144px" height="144px">
<g id="surface19488739">
<path style=" stroke:none;fill-rule:nonzero;fill:rgb(100%,100%,100%);fill-opacity:1;" d="M 73.5 12 C 59.167969 12 47.40625 16.03125 39.28125 23.722656 C 31.15625 31.417969 27 42.550781 27 55.5 L 27 66.773438 C 23.578125 69.503906 21 73.292969 21 78 C 21 85.085938 26.113281 90.808594 32.757812 92.34375 C 35.449219 103.007812 39.921875 112.507812 46.21875 119.484375 C 53.125 127.132812 62.121094 132 72 132 C 81.878906 132 90.875 127.132812 97.78125 119.484375 C 104.078125 112.507812 108.550781 103.007812 111.242188 92.34375 C 117.886719 90.808594 123 85.085938 123 78 C 123 73.289062 120.410156 69.523438 117 66.808594 L 117 61.5 C 117 56.917969 116.078125 53.054688 115.167969 50.238281 C 119.1875 47.929688 121.214844 42.902344 119.109375 38.496094 C 111.597656 22.789062 95.316406 12 73.5 12 Z M 73.5 21 C 92.453125 21 104.917969 29.6875 110.988281 42.378906 C 111.046875 42.507812 111.035156 42.546875 110.8125 42.617188 C 107.492188 43.617188 99.46875 45 90 45 C 78.5625 45 70.953125 42.867188 66.277344 40.863281 C 61.597656 38.859375 60.183594 37.320312 60.183594 37.320312 C 59.097656 36.234375 57.53125 35.777344 56.03125 36.105469 C 54.53125 36.433594 53.304688 37.507812 52.773438 38.945312 C 52.773438 38.945312 51.773438 42.066406 46.75 45.929688 C 44.78125 47.449219 44.414062 50.277344 45.929688 52.25 C 47.449219 54.21875 50.277344 54.585938 52.25 53.070312 C 55.191406 50.800781 56.996094 48.488281 58.417969 46.5 C 59.914062 47.535156 59.910156 47.929688 62.722656 49.136719 C 68.546875 51.632812 77.4375 54 90 54 C 96.574219 54 101.890625 53.390625 106.453125 52.625 C 107.1875 54.710938 108 57.632812 108 61.5 L 108 68.636719 C 108 70.375 108.996094 71.957031 110.566406 72.703125 C 112.628906 73.683594 114 75.609375 114 78 C 114 81.367188 111.367188 84 108 84 C 108.792969 84 108.738281 83.984375 107.816406 83.984375 C 105.6875 83.980469 103.851562 85.472656 103.414062 87.558594 C 101.179688 98.1875 96.710938 107.238281 91.101562 113.449219 C 85.492188 119.660156 78.953125 123 72 123 C 65.046875 123 58.507812 119.660156 52.898438 113.449219 C 47.289062 107.238281 42.820312 98.1875 40.585938 87.558594 C 40.148438 85.472656 38.3125 83.980469 36.183594 83.984375 C 35.261719 83.984375 35.207031 84 36 84 C 32.632812 84 30 81.367188 30 78 C 30 75.589844 31.382812 73.625 33.425781 72.65625 C 35 71.910156 36 70.328125 36 68.589844 L 36 55.5 C 36 44.425781 39.34375 36.058594 45.46875 30.257812 C 51.59375 24.457031 60.832031 21 73.5 21 Z M 57 72 C 53.6875 72 51 74.6875 51 78 C 51 81.3125 53.6875 84 57 84 C 60.3125 84 63 81.3125 63 78 C 63 74.6875 60.3125 72 57 72 Z M 87 72 C 83.6875 72 81 74.6875 81 78 C 81 81.3125 83.6875 84 87 84 C 90.3125 84 93 81.3125 93 78 C 93 74.6875 90.3125 72 87 72 Z M 87 72 "/>
</g>
</svg>
