<?xml version="1.0" encoding="UTF-8"?>
<svg xmlns="http://www.w3.org/2000/svg" viewBox="0 0 144 144" width="144px" height="144px">
<g id="surface18638768">
<path style=" stroke:none;fill-rule:nonzero;fill:rgb(100%,100%,100%);fill-opacity:1;" d="M 108 15 C 96.457031 15 87 24.457031 87 36 C 87 37.757812 87.59375 39.328125 88.007812 40.964844 L 52.039062 58.957031 C 48.175781 54.222656 42.542969 51 36 51 C 24.457031 51 15 60.457031 15 72 C 15 83.542969 24.457031 93 36 93 C 42.542969 93 48.175781 89.777344 52.039062 85.042969 L 88.007812 103.035156 C 87.59375 104.671875 87 106.242188 87 108 C 87 119.542969 96.457031 129 108 129 C 119.542969 129 129 119.542969 129 108 C 129 96.457031 119.542969 87 108 87 C 101.457031 87 95.824219 90.222656 91.960938 94.957031 L 55.992188 76.964844 C 56.40625 75.328125 57 73.757812 57 72 C 57 70.242188 56.40625 68.671875 55.992188 67.035156 L 91.960938 49.042969 C 95.824219 53.777344 101.457031 57 108 57 C 119.542969 57 129 47.542969 129 36 C 129 24.457031 119.542969 15 108 15 Z M 108 24 C 114.679688 24 120 29.320312 120 36 C 120 42.679688 114.679688 48 108 48 C 101.320312 48 96 42.679688 96 36 C 96 29.320312 101.320312 24 108 24 Z M 36 60 C 42.679688 60 48 65.320312 48 72 C 48 78.679688 42.679688 84 36 84 C 29.320312 84 24 78.679688 24 72 C 24 65.320312 29.320312 60 36 60 Z M 108 96 C 114.679688 96 120 101.320312 120 108 C 120 114.679688 114.679688 120 108 120 C 101.320312 120 96 114.679688 96 108 C 96 101.320312 101.320312 96 108 96 Z M 108 96 "/>
</g>
</svg>
